<svg width="101" height="100" viewBox="0 0 101 100" fill="none" xmlns="http://www.w3.org/2000/svg">
<path fill-rule="evenodd" clip-rule="evenodd" d="M43.2656 28.4925C51.5002 30.3755 53.4268 40.7611 58.8862 47.207C63.5039 52.6593 71.5078 55.7318 72.3453 62.8276C73.2334 70.3529 67.8965 76.7899 63.0668 82.6288C57.5326 89.3196 51.9398 97.5938 43.2656 97.9843C34.4301 98.382 27.3995 91.1711 21.5974 84.4957C16.2734 78.3704 13.2676 70.924 12.7085 62.8276C12.0992 54.0048 12.5035 44.5513 18.383 37.945C24.5149 31.0549 34.2741 26.4364 43.2656 28.4925Z" fill="#818998"/>
<path d="M41.2497 79.1666C42.8605 79.1666 44.1663 77.8608 44.1663 76.2499C44.1663 74.6391 42.8605 73.3333 41.2497 73.3333C39.6388 73.3333 38.333 74.6391 38.333 76.2499C38.333 77.8608 39.6388 79.1666 41.2497 79.1666Z" stroke="#2AF598" stroke-width="2" stroke-linecap="round" stroke-linejoin="round"/>
<path d="M73.3337 79.1666C74.9445 79.1666 76.2503 77.8608 76.2503 76.2499C76.2503 74.6391 74.9445 73.3333 73.3337 73.3333C71.7228 73.3333 70.417 74.6391 70.417 76.2499C70.417 77.8608 71.7228 79.1666 73.3337 79.1666Z" stroke="#2AF598" stroke-width="2" stroke-linecap="round" stroke-linejoin="round"/>
<path d="M17.917 17.9167H29.5837L37.4003 56.9709C37.667 58.3137 38.3976 59.52 39.464 60.3784C40.5304 61.2369 41.8649 61.693 43.2337 61.6667H71.5837C72.9525 61.693 74.2869 61.2369 75.3533 60.3784C76.4198 59.52 77.1503 58.3137 77.417 56.9709L82.0837 32.5001H32.5003" stroke="#2AF598" stroke-width="2" stroke-linecap="round" stroke-linejoin="round"/>
</svg>
