<svg width="114" height="100" viewBox="0 0 114 100" fill="none" xmlns="http://www.w3.org/2000/svg">
<path fill-rule="evenodd" clip-rule="evenodd" d="M33.1766 25.0027C43.0583 25.0614 52.9979 27.026 60.3623 33.6152C68.1246 40.5605 72.5783 50.4027 73.1858 60.8009C73.8324 71.8663 72.3397 84.3717 63.7364 91.3607C55.5005 98.0512 43.7856 93.5096 33.1766 93.3027C22.9372 93.1029 10.8777 97.58 3.78626 90.1912C-3.27907 82.8296 1.64602 70.9988 1.98291 60.8009C2.30048 51.188 -0.652627 40.5416 5.66602 33.2903C12.2068 25.784 23.2206 24.9436 33.1766 25.0027Z" fill="#818998"/>
<path d="M75.5439 23.75H31.7939V61.6667H75.5439V23.75Z" stroke="#2AF598" stroke-width="2" stroke-linecap="round" stroke-linejoin="round"/>
<path d="M75.5439 38.3333H87.2106L95.9606 47.0833V61.6666H75.5439V38.3333Z" stroke="#2AF598" stroke-width="2" stroke-linecap="round" stroke-linejoin="round"/>
<path d="M44.9186 76.2501C48.9457 76.2501 52.2103 72.9855 52.2103 68.9584C52.2103 64.9313 48.9457 61.6667 44.9186 61.6667C40.8915 61.6667 37.627 64.9313 37.627 68.9584C37.627 72.9855 40.8915 76.2501 44.9186 76.2501Z" stroke="#2AF598" stroke-width="2" stroke-linecap="round" stroke-linejoin="round"/>
<path d="M82.8356 76.2501C86.8627 76.2501 90.1273 72.9855 90.1273 68.9584C90.1273 64.9313 86.8627 61.6667 82.8356 61.6667C78.8085 61.6667 75.5439 64.9313 75.5439 68.9584C75.5439 72.9855 78.8085 76.2501 82.8356 76.2501Z" stroke="#2AF598" stroke-width="2" stroke-linecap="round" stroke-linejoin="round"/>
</svg>
