<svg width="101" height="100" viewBox="0 0 101 100" fill="none" xmlns="http://www.w3.org/2000/svg">
<path fill-rule="evenodd" clip-rule="evenodd" d="M57.8484 18.5877C67.5095 17.1929 79.2186 18.2891 84.978 26.1703C90.5364 33.7766 83.7485 43.8942 83.2149 53.2999C82.7391 61.6876 87.971 71.5417 82.0653 77.5169C76.1558 83.4961 66.173 77.7935 57.8484 78.9655C46.5928 80.5502 33.711 93.5119 25.6947 85.4536C17.6718 77.3888 29.8049 64.395 32.3163 53.2999C33.9192 46.2187 33.2622 38.8643 37.5641 33.0156C42.6749 26.0671 49.3112 19.8202 57.8484 18.5877Z" fill="#818998"/>
<path d="M76.75 48.5418C76.76 52.3914 75.8606 56.1889 74.125 59.6251C72.0671 63.7427 68.9034 67.206 64.9884 69.6272C61.0733 72.0483 56.5615 73.3316 51.9583 73.3334C48.1087 73.3435 44.3112 72.444 40.875 70.7084L24.25 76.2501L29.7917 59.6251C28.056 56.1889 27.1566 52.3914 27.1667 48.5418C27.1684 43.9385 28.4518 39.4267 30.8729 35.5117C33.2941 31.5966 36.7574 28.433 40.875 26.3751C44.3112 24.6395 48.1087 23.74 51.9583 23.7501H53.4167C59.496 24.0855 65.238 26.6515 69.5433 30.9568C73.8486 35.262 76.4146 41.0041 76.75 47.0834V48.5418Z" stroke="#2AF598" stroke-width="2" stroke-linecap="round" stroke-linejoin="round"/>
</svg>
