<svg width="101" height="100" viewBox="0 0 101 100" fill="none" xmlns="http://www.w3.org/2000/svg">
<path fill-rule="evenodd" clip-rule="evenodd" d="M62.7464 28.1261C71.4053 26.9725 78.754 33.9506 84.8968 40.1614C90.9968 46.3287 97.1348 53.6565 96.5588 62.3118C96.0027 70.667 87.8963 75.6237 82.1326 81.6981C76.0993 88.0566 71.4654 98.8477 62.7464 97.947C54.003 97.0438 51.2938 85.7322 46.9903 78.0679C44.2214 73.1368 42.942 67.9634 42.737 62.3118C42.5207 56.3494 42.7901 50.5186 45.804 45.3694C50.0355 38.14 54.443 29.2323 62.7464 28.1261Z" fill="#818998"/>
<path d="M21.71 23.75H39.21C42.3042 23.75 45.2716 24.9792 47.4595 27.1671C49.6475 29.355 50.8766 32.3225 50.8766 35.4167V76.25C50.8766 73.9294 49.9548 71.7038 48.3138 70.0628C46.6729 68.4219 44.4473 67.5 42.1266 67.5H21.71V23.75Z" stroke="#2AF598" stroke-width="2" stroke-linecap="round" stroke-linejoin="round"/>
<path d="M80.0436 23.75H62.5436C59.4494 23.75 56.482 24.9792 54.294 27.1671C52.1061 29.355 50.877 32.3225 50.877 35.4167V76.25C50.877 73.9294 51.7988 71.7038 53.4398 70.0628C55.0807 68.4219 57.3063 67.5 59.627 67.5H80.0436V23.75Z" stroke="#2AF598" stroke-width="2" stroke-linecap="round" stroke-linejoin="round"/>
</svg>
