<svg width="110" height="100" viewBox="0 0 110 100" fill="none" xmlns="http://www.w3.org/2000/svg">
<path fill-rule="evenodd" clip-rule="evenodd" d="M20.7758 10.0061C30.463 3.91056 42.6209 4.70938 53.602 7.54712C64.7529 10.4287 77.0787 15.0189 81.2558 25.6354C85.2319 35.7409 78.2154 46.5528 72.6966 56.0777C68.6771 63.0149 61.983 67.1547 54.9357 71.0614C47.9314 74.9442 40.9095 78.3587 32.9455 78.1138C22.0742 77.7795 8.95412 78.3344 2.92295 69.4619C-3.23236 60.4067 2.35748 48.3793 5.53653 37.792C8.68252 27.3149 11.4315 15.886 20.7758 10.0061Z" fill="#818998"/>
<path d="M76.5 38.3333H79.4167C82.5109 38.3333 85.4783 39.5624 87.6662 41.7503C89.8542 43.9383 91.0833 46.9057 91.0833 49.9999C91.0833 53.0941 89.8542 56.0616 87.6662 58.2495C85.4783 60.4374 82.5109 61.6666 79.4167 61.6666H76.5" stroke="#2AF598" stroke-width="2" stroke-linecap="round" stroke-linejoin="round"/>
<path d="M29.833 38.3333H76.4997V64.5833C76.4997 67.6774 75.2705 70.6449 73.0826 72.8328C70.8947 75.0208 67.9272 76.2499 64.833 76.2499H41.4997C38.4055 76.2499 35.438 75.0208 33.2501 72.8328C31.0622 70.6449 29.833 67.6774 29.833 64.5833V38.3333Z" stroke="#2AF598" stroke-width="2" stroke-linecap="round" stroke-linejoin="round"/>
<path d="M41.5 17.9167V26.6667" stroke="#2AF598" stroke-width="2" stroke-linecap="round" stroke-linejoin="round"/>
<path d="M53.167 17.9167V26.6667" stroke="#2AF598" stroke-width="2" stroke-linecap="round" stroke-linejoin="round"/>
<path d="M64.833 17.9167V26.6667" stroke="#2AF598" stroke-width="2" stroke-linecap="round" stroke-linejoin="round"/>
</svg>
