<svg width="30" height="52" viewBox="0 0 30 52" fill="none" xmlns="http://www.w3.org/2000/svg">
<path d="M27.2348 0V7.89962H23.9233C19.242 10.0062 18.0716 15.019 18.0716 17.2621V51.0076H10.1721L10.1721 17.2621C9.70393 4.62274 19.1445 0.487631 23.9233 0H27.2348Z" fill="url(#paint0_linear_1_1650)"/>
<path d="M2.98267 45.0443V37.4372H21.7077C24.0483 35.7988 22.6829 34.0238 21.7077 33.3411H14.5395H7.37137C-4.91699 27.7821 0.349472 15.7864 7.37137 14.3235H27.2098V21.9305H9.41939C7.31283 23.569 8.54166 25.1489 9.41939 25.7341L21.7077 25.85C35.4589 29.9461 29.6073 45.6294 21.7077 45.0443H2.98267Z" fill="url(#paint1_linear_1_1650)"/>
<defs>
<linearGradient id="paint0_linear_1_1650" x1="14.9999" y1="11.5" x2="14.4999" y2="47.5" gradientUnits="userSpaceOnUse">
<stop stop-color="#2AF598"/>
<stop offset="1" stop-color="#009EFD"/>
</linearGradient>
<linearGradient id="paint1_linear_1_1650" x1="0" y1="29.6918" x2="29.97" y2="29.6918" gradientUnits="userSpaceOnUse">
<stop stop-color="#2AF598"/>
<stop offset="1" stop-color="#009EFD"/>
</linearGradient>
</defs>
</svg>
