<svg width="78" height="78" viewBox="0 0 78 78" fill="none" xmlns="http://www.w3.org/2000/svg">
<path d="M66.4238 12.1501C61.0336 6.7695 54.1659 3.10504 46.6891 1.62013C39.2123 0.135227 31.4622 0.896639 24.419 3.80806C17.3757 6.71949 11.3557 11.6503 7.12021 17.9765C2.88472 24.3029 0.624023 31.7408 0.624023 39.3495C0.624023 46.9583 2.88472 54.3962 7.12021 60.7226C11.3557 67.0488 17.3757 71.9796 24.419 74.891C31.4622 77.8024 39.2123 78.5638 46.6891 77.0789C54.1659 75.594 61.0336 71.9296 66.4238 66.549C73.6506 59.3348 77.7105 49.551 77.7105 39.3495C77.7105 29.1481 73.6506 19.3643 66.4238 12.1501ZM11.4455 28.2467C10.9246 27.0315 10.9652 25.6457 11.5867 24.4788C13.4748 20.9337 16.0228 17.7726 19.1005 15.1681C22.7047 12.1181 26.9448 9.90803 31.5121 8.69886C36.0797 7.48969 40.8597 7.31178 45.5047 8.17802C49.3653 8.89798 48.2157 14.4973 44.5457 15.895C38.6849 18.1269 32.7342 21.9512 27.4602 27.2055C25.5805 29.0785 23.8498 31.0898 22.2819 33.2208C20.1882 36.0665 15.8896 36.4836 14.0872 33.445C13.0954 31.7729 12.2128 30.0366 11.4455 28.2467ZM31.9276 70.9379C31.9276 70.9467 31.9192 70.9531 31.9107 70.9508C24.6023 68.9921 18.2318 64.4989 13.9419 58.2765C13.1359 57.1073 12.4132 55.8914 11.7761 54.6379C9.47344 50.1067 16.386 47.4557 20.622 50.2646C24.905 53.1046 30.0075 55.4221 35.6944 56.9317C38.2303 57.6183 40.812 58.1075 43.4162 58.3968C46.9337 58.7875 49.4538 62.3071 47.7202 65.3926C46.781 67.0641 45.7349 68.6757 44.5878 70.217C43.7971 71.2794 42.5758 71.9409 41.2523 71.9874C38.1178 72.0977 34.9804 71.7407 31.9445 70.925C31.936 70.9227 31.9276 70.9291 31.9276 70.9379ZM55.9121 34.3922C55.2382 31.8336 54.3704 29.3335 53.3177 26.9132C51.9108 23.6783 53.7013 19.7573 57.2286 19.7122C59.1659 19.6874 61.1047 19.7875 63.0327 20.0126C64.3446 20.1658 65.5257 20.889 66.2279 22.0077C67.8956 24.6645 69.1557 27.5599 69.9627 30.5978C71.9261 37.9003 71.2159 45.6623 67.9597 52.4891C67.3511 53.765 66.6611 54.9926 65.8961 56.1655C63.1179 60.4254 57.3296 55.7397 57.6402 50.6635C57.9525 45.5601 57.4172 40.0181 55.9121 34.3922Z" fill="#4A586F"/>
</svg>
